<?xml version="1.0" standalone="no"?>
<!DOCTYPE svg PUBLIC "-//W3C//DTD SVG 20010904//EN"
 "http://www.w3.org/TR/2001/REC-SVG-20010904/DTD/svg10.dtd">
<svg version="1.0" xmlns="http://www.w3.org/2000/svg"
 width="300.000000pt" height="300.000000pt" viewBox="0 0 300.000000 300.000000"
 preserveAspectRatio="xMidYMid meet">
<metadata>
Created by potrace 1.14, written by Peter Selinger 2001-2017
</metadata>
<g transform="translate(0.000000,300.000000) scale(0.100000,-0.100000)"
fill="#000000" stroke="none">
<path d="M1655 2225 c-33 -11 -71 -27 -85 -34 -14 -8 -27 -14 -30 -14 -6 1
-23 -4 -47 -14 -10 -3 -20 -7 -23 -7 -3 -1 -14 -7 -25 -13 -11 -6 -22 -11 -25
-11 -5 -1 -36 -11 -60 -20 -8 -3 -17 -6 -20 -7 -3 -1 -21 -8 -40 -17 -19 -8
-53 -21 -75 -28 -22 -7 -46 -18 -54 -24 -8 -6 -16 -10 -17 -9 -4 3 -28 -5 -69
-22 -16 -6 -43 -17 -60 -23 -16 -5 -39 -14 -50 -18 -11 -4 -22 -8 -25 -9 -3
-1 -21 -8 -40 -16 -19 -9 -63 -26 -98 -39 l-64 -23 7 -81 c4 -45 9 -92 10
-106 1 -14 6 -61 9 -104 4 -44 9 -93 11 -110 3 -27 13 -140 20 -231 1 -16 6
-64 10 -105 10 -107 13 -145 20 -230 4 -41 10 -78 13 -82 4 -3 30 -9 57 -12
28 -4 68 -9 90 -12 22 -3 54 -7 70 -9 17 -2 86 -11 155 -20 136 -18 182 -21
220 -11 24 5 49 11 95 21 11 3 31 7 45 10 14 4 36 8 50 11 14 3 50 11 80 19
30 8 69 16 85 19 37 7 57 11 120 26 28 6 61 14 75 16 14 3 41 9 60 14 19 5 49
12 65 15 29 6 44 9 95 21 14 3 32 6 40 8 15 3 17 20 7 66 -3 14 -9 36 -12 50
-3 14 -8 39 -11 55 -8 42 -9 48 -17 70 -3 11 -8 37 -12 59 -3 21 -7 41 -9 45
-2 3 -7 24 -10 46 -4 22 -8 47 -11 55 -2 8 -6 26 -9 40 -3 14 -8 36 -11 50 -3
14 -8 39 -11 55 -2 17 -9 46 -14 65 -5 19 -12 50 -15 69 -3 19 -7 37 -9 40 -2
3 -7 22 -10 41 -6 35 -11 61 -18 90 -3 14 -36 55 -98 120 -19 20 -69 74 -110
120 -41 45 -93 101 -115 124 l-40 42 -60 -21z"/>
</g>
</svg>
